<?xml version="1.0" encoding="UTF-8"?>
<svg xmlns="http://www.w3.org/2000/svg" width="1080" height="1350" viewBox="0 0 1080 1350">
<defs><linearGradient id="bg" x1="0" y1="0" x2="0" y2="1"><stop offset="0%" stop-color="#12151c"/><stop offset="100%" stop-color="#0f1115"/></linearGradient></defs>
<rect width="1080" height="1350" fill="url(#bg)"/>
<rect x="90" y="280" width="900" height="120" fill="#1b1f28" rx="16"/>
<rect x="90" y="280" width="6" height="120" fill="#ffb020" rx="3"/>
<rect x="90" y="430" width="900" height="120" fill="#1b1f28" rx="16"/>
<rect x="90" y="430" width="6" height="120" fill="#ffb020" rx="3"/>
<rect x="90" y="580" width="900" height="120" fill="#1b1f28" rx="16"/>
<rect x="90" y="580" width="6" height="120" fill="#ffb020" rx="3"/>
<rect x="90" y="730" width="900" height="120" fill="#1b1f28" rx="16"/>
<rect x="90" y="730" width="6" height="120" fill="#ffb020" rx="3"/>
<rect x="90" y="880" width="900" height="120" fill="#1b1f28" rx="16"/>
<rect x="90" y="880" width="6" height="120" fill="#ffb020" rx="3"/>
<rect x="90" y="1030" width="900" height="120" fill="#1b1f28" rx="16"/>
<rect x="90" y="1030" width="6" height="120" fill="#ffb020" rx="3"/>
<text x="70" y="120" font-family="Source Han Sans SC, Microsoft YaHei, sans-serif" font-size="52" font-weight="bold" fill="#ffffff">贴息条件</text>
<text x="70" y="175" font-family="Source Han Sans SC, Microsoft YaHei, sans-serif" font-size="30" fill="#8b93a1">门槛清晰，不是普惠</text>
<text x="130" y="352" font-family="Source Han Sans SC, Microsoft YaHei, sans-serif" font-size="38" fill="#8b93a1">房屋</text>
<text x="950" y="358" text-anchor="end" font-family="Source Han Sans SC, Microsoft YaHei, sans-serif" font-size="46" font-weight="bold" fill="#ffb020">仅首套</text>
<text x="130" y="502" font-family="Source Han Sans SC, Microsoft YaHei, sans-serif" font-size="38" fill="#8b93a1">面积</text>
<text x="950" y="508" text-anchor="end" font-family="Source Han Sans SC, Microsoft YaHei, sans-serif" font-size="46" font-weight="bold" fill="#ffb020">≤ 120 ㎡</text>
<text x="130" y="652" font-family="Source Han Sans SC, Microsoft YaHei, sans-serif" font-size="38" fill="#8b93a1">总价</text>
<text x="950" y="658" text-anchor="end" font-family="Source Han Sans SC, Microsoft YaHei, sans-serif" font-size="46" font-weight="bold" fill="#ffb020">≤ 150 万元</text>
<text x="130" y="802" font-family="Source Han Sans SC, Microsoft YaHei, sans-serif" font-size="38" fill="#8b93a1">贴息</text>
<text x="950" y="808" text-anchor="end" font-family="Source Han Sans SC, Microsoft YaHei, sans-serif" font-size="46" font-weight="bold" fill="#ffb020">1 个百分点</text>
<text x="130" y="952" font-family="Source Han Sans SC, Microsoft YaHei, sans-serif" font-size="38" fill="#8b93a1">年限</text>
<text x="950" y="958" text-anchor="end" font-family="Source Han Sans SC, Microsoft YaHei, sans-serif" font-size="46" font-weight="bold" fill="#ffb020">最长 5 年</text>
<text x="130" y="1102" font-family="Source Han Sans SC, Microsoft YaHei, sans-serif" font-size="38" fill="#8b93a1">单户上限</text>
<text x="950" y="1108" text-anchor="end" font-family="Source Han Sans SC, Microsoft YaHei, sans-serif" font-size="46" font-weight="bold" fill="#ffb020">100 万元</text>
<text x="70" y="1290" font-family="Source Han Sans SC, Microsoft YaHei, sans-serif" font-size="24" fill="#8b93a1">数据来源：公开政策文件与统计</text>
</svg>